<svg xmlns="http://www.w3.org/2000/svg" width="135" height="165" fill="none" viewBox="0 0 135 165">
  <path fill="#1ABC00" fill-opacity=".43" fill-rule="evenodd" d="M8.713 103.263c4.027-1.414 7.8-3.185 8.384-3.934.584-.75-2-.037-5.746 1.585-3.744 1.622-6.618 2.383-6.388 1.691.231-.691 2.172-2.014 4.314-2.938 4.603-1.985 5.417-2.781 3.156-3.087-1.117-.15-.906-.723.645-1.748 1.267-.838 2.059-1.714 1.759-1.948-.604-.47-6.323 3.61-11.771 8.399-4.913 4.319-2.964 5.002 5.647 1.98Zm15.261 3.828c1.619-.799 5.624-3.682 8.903-6.407 5.164-4.29 6.195-5.717 7.707-10.653 1.663-5.427 1.965-5.78 6.318-7.367 5.988-2.184 7.368.219 3.862 6.72-1.52 2.819-2.015 4.52-1.1 3.776.914-.742 2.46-3.364 3.434-5.826 1.884-4.762 3.758-6.088 3.502-2.477-.084 1.197.167 1.779.56 1.294.391-.486.583-2.128.426-3.65-.256-2.46.344-2.936 5.43-4.312 4.482-1.212 5.452-1.116 4.49.45-.677 1.099-3.574 5.617-6.439 10.042-2.865 4.426-4.83 8.34-4.368 8.7 2.963 2.308 14.876-10.628 15.957-17.324.618-3.842.953-4.172 5.355-5.28l4.695-1.185-4.46 7.618c-4.553 7.772-4.753 10.152-.6 7.111 3.575-2.618 5.907-5.997 7.301-10.58 1.126-3.698 1.79-4.307 5.787-5.302 6.177-1.536 6.872-2.933.81-1.625-4.507.973-5.276.707-10.105-3.489-4.497-3.905-4.808-4.037-2.232-.94l2.994 3.601-3.283-2.166-3.283-2.167 2.516 3.151c2.295 2.874 2.101 2.842-2.202-.363-3.287-2.448-4.044-3.43-2.496-3.237 1.904.239 2.04-.012.947-1.747-1.466-2.328-4.913-3.737-5.933-2.427-.912 1.17 2.076 4.923 6.977 8.767 5.148 4.038 2.778 5.9-2.818 2.215-2.213-1.457-4.318-2.269-4.679-1.806-.36.463-1.382.577-2.268.253-.888-.324-.416.073 1.046.882 4.656 2.574 3.956 4.178-2.415 5.537-4.397.939-6.975.704-8.94-.808-1.518-1.17-3.814-2.21-5.102-2.31-1.807-.143-1.645.137.704 1.222l3.047 1.407-3.563.04c-1.96.023-4.876-.063-6.479-.19-1.604-.127-.449.245 2.567.827 3.015.583 5.652 1.192 5.86 1.355.65.506-7.638 4.065-10.66 4.579-1.585.268-4.332-.613-6.103-1.96l-3.221-2.448 2.218 3.875c1.22 2.13 1.817 4.853 1.327 6.048-.762 1.858-.508 1.919 1.759.418 2.466-1.635 2.603-1.583 1.962.747-1.16 4.221-4.786 8.24-10.271 11.384l-5.237 3 4.709-7.264 4.707-7.264-6.76 8.305c-6.984 8.576-7.972 11.775-2.86 9.25Zm24.166 11.342c8.175-1.126 18.286-5.65 24.075-10.772 4.958-4.385 5.892-4.811 5.688-2.59-1.454 15.747-1.807 30.715-.725 30.612.74-.069.594.321-.326.866-1.722 1.023-2.646 5.42-1.108 5.274 1.057-.099 7.494-13.498 8.975-18.684 1.892-6.621.952-18.664-1.758-22.565l-2.558-3.676 7.347-10.181 7.346-10.18-8.809 11.275c-7.96 10.186-9.273 11.4-13.614 12.564-2.642.708-9.168 3.754-14.501 6.768-15.726 8.889-18.952 12.518-10.032 11.289Zm58.723 43.397c.765-1.767 2.236-4.31 3.271-5.651 1.677-2.173 1.631-2.296-.424-1.136-1.997 1.128-2.097.684-.755-3.299.852-2.531 1.275-5.286.941-6.121-.336-.834-.661-.887-.724-.114-.214 2.612-3.756 14.803-4.202 14.456-.243-.19-.226-3.164.036-6.609.263-3.445.158-5.338-.233-4.204-1.293 3.748-1.596 14.101-.438 15.003.723.564 1.647-.286 2.528-2.325ZM22.571 94.223c2.009-2.453 5.456-4.966 8.051-5.869 6.292-2.19 6.174-2.46-1.288-2.927-6.333-.398-10.914-2.18-8.083-3.146.805-.274.48-.762-.784-1.173-1.61-.524-1.984-.26-1.466 1.032.416 1.035-.387.795-1.982-.59l-2.68-2.327 3.913-.075c2.152-.042 6.086-.01 8.74.07 2.656.08 3.736-.113 2.4-.426-3.184-.748-20.32-.83-20.993-.1-.781.849 15.465 7.752 17.74 7.537 3.888-.367 3.677 1.232-.309 2.334-7.512 2.079-9.632 3.3-7.975 4.59.82.638 1.907.723 2.415.188.508-.535.442.41-.145 2.1-.888 2.557-.477 2.352 2.446-1.218Zm27.162 20.458c-.754-.101-1.259-.33-1.12-.508.895-1.15 18.735-10.761 21.664-11.673 4.626-1.438 6.205-.222 2.501 1.926-1.575.914-3.098 2.498-3.387 3.519-.288 1.021-4.736 3.64-9.882 5.818-5.147 2.18-9.144 3.319-8.882 2.533.262-.787-.14-1.513-.894-1.615Zm-9.55-6.123c2.563-.243 5.582-5.695 5.052-9.127-.537-3.475-.55-3.474-2.323.143-3.332 6.792-4.035 9.107-2.73 8.984Zm19.966 3.143c4.516-2.054 8.437-4.073 8.713-4.485.276-.412-3.462.976-8.31 3.086-4.847 2.109-8.767 4.127-8.713 4.485.056.358 3.795-1.031 8.31-3.086Zm17.846 8.905c.523-7.109 1.227-14.466 1.564-16.35l.615-3.425.743 4.483c.41 2.466.37 8.367-.087 13.113-.458 4.747-.37 8.038.193 7.315 1.21-1.553 2.188-14.455 1.35-17.805-.32-1.279-.23-2.777.2-3.329 1.22-1.567 2.332 5.501 1.885 11.988-.222 3.227-1.497 7.504-2.835 9.504-1.336 2-2.692 4.663-3.012 5.916-1.29 5.051-1.516.843-.616-11.41Zm19.364 20.103c5.216-.836 6.346-1.581 10.052-6.616l4.175-5.672-4.965 5.071c-2.997 3.061-6.215 5.189-8.117 5.369-3.01.284-3.008.165.046-2.656 2.314-2.138 2.527-2.613.772-1.721l-2.426 1.234.979-2.361c.538-1.299-.863-.107-3.115 2.649-2.253 2.755-3.91 5.152-3.686 5.327.225.175 3.053-.106 6.285-.624ZM52.01 96.851c2.325-2.912 4.288-6.157 4.361-7.21.074-1.07-1.617.717-3.828 4.045-5.402 8.128-5.643 9.561-.534 3.165ZM27.386 83.053c3.053.045 3.054.018.033-.7-1.73-.411-3.304-.544-3.497-.296-.58.744.123.946 3.464.996Zm81.639 58.297c2.538-1.827 2.551-1.82 3.455 1.877.501 2.04.639 1.055.307-2.191-.661-6.479.445-15.236 1.792-14.187.468.364.979 1.489 1.135 2.497.195 1.262.645 1.371 1.445.344.638-.819.542-1.971-.215-2.561-2.291-1.784-.149-2.983 2.692-1.506 1.46.759.862.172-1.328-1.304-3.131-2.111-4.115-3.69-4.605-7.383-.797-6.016.306-7.341 4.238-5.09 2.534 1.451 2.416 1.186-.603-1.353-5.256-4.422-3.228-5.872 2.247-1.607 5.23 4.073 9.614 10.024 10.188 13.827.358 2.377.26 2.46-.887.758-.709-1.054-2.871-3.542-4.805-5.531l-3.516-3.614 3.012 4.302c1.657 2.365 2.406 4.356 1.663 4.422-.741.068.37 1.459 2.47 3.095 3.432 2.674 3.857 2.705 4.208.306.214-1.467-.986-5.305-2.669-8.528-2.511-4.811-4.299-6.684-9.986-10.461-6.543-4.346-6.964-4.879-7.593-9.615l-.665-5.014 7.8 5.805 7.8 5.807-6.242-5.813c-4.257-3.964-5.282-5.354-3.223-4.371 2.506 1.194 2.441 1.03-.377-.963-3.672-2.596-2.741-3.757 1.875-2.339 2.005.617 2.383.474 1.254-.475-.89-.747-3.609-1.407-6.04-1.465-4.421-.104-4.423-.106-4.97-3.65-.548-3.546-.546-3.546 4.308-.816 2.671 1.501 4.795 2.33 4.719 1.84-.075-.49-2.37-1.978-5.101-3.307-4.615-2.247-5.928-4.56-2.013-3.545.947.244.489-.123-1.02-.819s-2.557-1.503-2.33-1.795c.983-1.261 8.305.523 13.491 3.286l5.635 3.004-5.174-3.5c-3.294-2.226-7.397-3.73-11.285-4.137-8.821-.921-11.366-4.401-7.309-9.995l2.999-4.133-4.506 4.299c-4.712 4.496-6.796 7.98-5.415 9.055.447.349 1.29-.519 1.872-1.929.853-2.072 1.303-2.17 2.347-.514.709 1.127 1.599 2.293 1.977 2.59.377.298-2.18 4.312-5.681 8.921-7.32 9.635-8.05 13.764-1.654 9.367 2.268-1.56 5.296-4.734 6.728-7.054 2.259-3.656 2.027-3.526-1.748.981-5.405 6.454-5.905 3.085-.568-3.818 3.338-4.315 3.638-4.426 5.974-2.182 1.353 1.298 2.712 3.982 3.017 5.965.523 3.377.343 3.661-2.874 4.552-1.888.522-4.081 1.869-4.875 2.993-.906 1.284-.046 1.101 2.318-.495 5.323-3.595 3.318.29-3.963 7.679-4.188 4.249-5.565 5.132-5.065 3.248l.686-2.589-1.484 1.967c-.816 1.082-2.005 3.293-2.641 4.914-1.143 2.909-1.092 2.924 4.087 1.158 4.483-1.53 5.945-2.812 10.101-8.862 2.672-3.892 5.141-6.855 5.486-6.586.346.269.861 2.398 1.147 4.73.391 3.183-.164 4.797-2.222 6.467-8.155 6.615-7.823 6.291-5.158 5.029l2.494-1.18-1.32 2.095c-.939 1.491-.436 1.431 1.739-.207 2.389-1.8 1.999-.887-1.785 4.168-3.157 4.217-5.867 6.726-7.786 7.208-3.498.878-3.319-.606.872-7.221 1.95-3.078 1.41-2.675-2.05 1.527-6.12 7.434-6.423 10.247-.92 8.537 2.847-.887 5.961-3.471 10.399-8.631l6.332-7.367.892 5.06c.492 2.783.304 5.68-.416 6.44-.721.758-2.065 2.459-2.988 3.777-1.371 1.962-1.244 2.398.696 2.394 2.998-.005 2.607 4.496-.945 10.886-2.13 3.831-2.115 4.136.123 2.526Zm-61.9-49.082c1.229-1.62 1.417-2.338.419-1.597-.999.742-2.003 2.068-2.233 2.946-.23.878.586.27 1.814-1.35Zm79.436 57.967c.416-.534.307-1.322-.242-1.75-.549-.427-.304-1.178.546-1.667.85-.489 1.174-2.133.724-3.655-.701-2.362-.788-2.421-.593-.4.434 4.508-.946 3.84-2.78-1.344-1.013-2.862-2.749-5.501-3.856-5.862-1.531-.498-1.847-.236-1.316 1.089.386.96 1.597 2.037 2.69 2.393 1.212.395 1.405.846.495 1.157-.833.284-.573 2.682.583 5.405 2.365 5.569 2.699 5.983 3.749 4.634Zm-21.336-19.741c1.041-1.336 1.233-2.066.427-1.62-.807.445-1.659 1.538-1.893 2.43-.234.89.425.526 1.466-.81ZM50.297 86.149c1.041-1.337 1.233-2.066.427-1.62-.807.444-1.659 1.538-1.893 2.43-.234.89.425.526 1.466-.81Zm-10.995-7.934c2.861.978 6.05 1.67 7.088 1.536 1.2-.156.694-.498-1.39-.942-1.801-.383-3.685-1.316-4.184-2.072-.5-.756-2.717-1.774-4.928-2.263-6.293-1.39-4.97-2.73 1.976-2.004 3.449.361 6.414.47 6.59.244.48-.616-7.147-1.64-12.75-1.711l-4.922-.062 3.659 2.748c2.012 1.51 6 3.547 8.86 4.526Zm59.595 41.103c1.457-1.871 1.841-2.801.853-2.068-.988.733-2.18 2.264-2.65 3.402-.469 1.136.34.537 1.797-1.334ZM62.527 90.99c.662-.225.944-1.051.63-1.837-.637-1.586 3.45-7.345 6.433-9.062 3.4-1.958 2.004 2.381-2.737 8.505-2.78 3.587-4.591 5.135-4.954 4.231-.315-.785-.032-1.611.629-1.837Zm65.437 48.015c.138-1.694-2.073-7.053-2.621-6.35-.175.225.314 2.108 1.086 4.186s1.464 3.052 1.535 2.164Zm-7.351-6.09c-.183-1.21-.783-2.156-1.332-2.104-.551.052-.402 1.041.33 2.199 1.059 1.671 1.264 1.653 1.002-.095ZM66.431 86.874c.833-1.171.768-1.592-.165-1.073-.844.47-1.46 1.337-1.37 1.926.092.59.782.206 1.535-.853Zm34.808 14.748 3.994-3.135-3.052 4.132c-1.679 2.273-4.02 4.665-5.203 5.316-2.014 1.11-2.074 1.047-.942-.996.666-1.199 3.007-3.592 5.203-5.317Zm-4.942-2.287c1.229-1.62 1.417-2.338.419-1.596-.999.741-2.003 2.067-2.233 2.945-.23.878.586.271 1.814-1.35Zm24.251 18.603c-.525-.86-1.442-1.518-2.036-1.462-.593.056-.163.759.956 1.564 1.238.889 1.662.849 1.08-.102ZM60.573 71.164c-1.23-1.344-2.36-3.142-2.51-3.997-.153-.875.652-.518 1.846.82 1.862 2.09 1.95 2.078.73-.099-1.262-2.25-8.482-5.064-9.534-3.713-.197.254 2.355 2.48 5.674 4.948 3.318 2.467 5.025 3.386 3.794 2.041ZM27.772 41c7.122-1.144 13.06-4.056 16.042-7.87 1.17-1.494 4.311-3.077 7.038-3.547 3.263-.562 4.234-.39 2.874.507-1.13.744-2.448 2.528-2.929 3.964-.844 2.518-.78 2.545 1.764.763 2.064-1.446 1.903-.89-.738 2.55-1.98 2.578-3.126 3.467-2.77 2.15.509-1.879.022-1.947-2.983-.421-1.975 1.002-4.382 3.16-5.35 4.798-1.71 2.891-1.595 2.906 4.052.535 5.074-2.13 6.407-3.364 10.521-9.74 4.45-6.895 4.982-7.334 9.568-7.865l4.857-.563-.419 3.216c-.35 2.694-.19 2.936.988 1.488.773-.952 1.66-1.099 1.97-.326.712 1.777 1.403.907 1.884-2.373.279-1.91 1.362-2.776 4.252-3.402 2.133-.463 3.817-1.24 3.742-1.727-.274-1.775 3.372 2.32 4.697 5.274 1.521 3.397 2.078 3.193 2.688-.984.348-2.375 1.266-2.952 5.476-3.441 6.43-.746 6.919-.293 3.69 3.424-1.63 1.877-1.763 2.276-.35 1.05 2.689-2.332 6.813-2.967 7.197-1.107.15.719.601.226 1.005-1.096.493-1.616 2.063-2.572 4.78-2.914 4.079-.515 8.457 1.593 7.055 3.395-.417.534-.305 1.324.248 1.755.632.492 1.328-.342 1.872-2.248.727-2.544 1.401-2.89 4.205-2.156 2.91.761 3.164 1.135 1.972 2.898-.753 1.114-1.594 2.552-1.869 3.196-.275.645-2.144 3.405-4.155 6.133s-3.309 5.23-2.883 5.563c.426.331 3.096-2.859 5.936-7.09 2.839-4.23 5.525-7.408 5.968-7.062 2.651 2.065 5.592 9.242 4.417 10.778-.778 1.02-.697 1.589.192 1.349 2.267-.61 4.521 1.654 3.699 3.713-.634 1.588-.709 1.53-.672-.523.077-4.283-.965-1.123-1.7 5.153-.941 8.041-2.132 9.525-2.585 3.221-.196-2.729-.555-3.712-.798-2.183-.244 1.528-.3 4.997-.126 7.71l.315 4.93 3.044-3.898c1.675-2.144 3.381-6.21 3.794-9.037.545-3.747 1.188-5.004 2.372-4.642.914.28.861-.153-.12-.986-2.315-1.967-.763-3.84 1.635-1.973 1.026.8 3.266 1.512 4.978 1.585 3.625.153 2.767-.987-1.354-1.8-1.557-.305-3.591-1.623-4.52-2.928-1.543-2.17-1.192-2.3 4.153-1.528 3.328.479 7.377 2.073 9.411 3.703 3.173 2.542 2.671 2.51-4.5-.285-4.438-1.73-8.013-2.778-7.943-2.327.069.449 1.743 1.35 3.717 1.999 1.976.65 3.845 1.812 4.156 2.585.624 1.556 10.048 3.758 10.976 2.567.321-.413-1.526-2.396-4.107-4.406-4.961-3.864-11.168-5.78-17.679-5.456-3.708.185-4.128-.084-7.182-4.606l-3.244-4.801 8.73-11.81c4.915-6.65 9.481-11.881 10.45-11.972 2.071-.196 3.561 4.57 4.35 13.915.534 6.323-.314 6.076-2.088-.608-.787-2.963-.83-2.978-.756-.248.072 2.642 2.797 9.493 4.216 10.598.323.252.981-1.902 1.464-4.785 1.004-6.01-1.4-20.15-3.736-21.97-1.16-.903-.678-2.464 1.846-5.98l3.416-4.756-3.793 4.073c-2.976 3.194-5.006 4.138-9.418 4.376-3.094.167-4.531.384-3.194.482 5.54.409 5.701.673 1.945 3.178-2.01 1.343-3.9 2.125-4.2 1.74-.3-.385-2.676-.427-5.28-.093-2.605.334-4.182 1.048-3.506 1.587.777.62.422.88-.965.707-2.681-.334-3.664-2.312-1.608-3.233.827-.37.111-.393-1.59-.051-5.671 1.14-5.419 2.61.665 3.881 4.644.97 10.422.24 15.689-1.982 3.765-1.587 3.596-1.249-4.768 9.56l-8.672 11.204-4.484-.767c-3.458-.591-4.773-1.377-5.744-3.43-.694-1.464-1.728-2.619-2.299-2.564-.572.054-.498.52.164 1.035.662.515.862 1.374.446 1.909-.416.534-2.177-.134-3.912-1.485-1.84-1.434-2.573-2.656-1.76-2.933 1.607-.549-.255-2.074-3.979-3.259-3.865-1.23-2.013 2.235 3.483 6.516l4.52 3.52-4.489-.076c-3.441-.06-5.532-1.001-8.963-4.036-3.969-3.51-4.127-3.561-1.407-.453 2.746 3.137 2.775 3.458.283 3.057-1.532-.247-3.63-1.382-4.664-2.521-1.81-1.998-1.828-1.983-.493.404.76 1.363 1.88 2.557 2.486 2.658 2.456.403-.218 1.545-4.133 1.766-2.3.129-6.09-.775-8.423-2.009-2.331-1.233-4.29-1.617-4.354-.849-.065.802-1.974-.103-4.503-2.135-3.095-2.489-3.634-3.289-1.823-2.712 3.779 1.203 2.05-1.858-2.32-4.108-2.019-1.038-3.925-1.56-4.237-1.16-.746.958 3.867 6.136 9.087 10.201 4.09 3.187 4.103 3.245.775 3.727-2.359.342-4.844-.587-8.22-3.072-4.803-3.539-4.815-3.538-1.785-.036 2.441 2.823 2.514 3.155.362 1.663-1.954-1.356-2.484-1.337-1.938.068.635 1.633.47 1.846-1.064 1.367-1.483-.464-1.557-.343-.407.652 1 .867.157 1.378-2.905 1.765-3.13.394-5.495-.325-8.607-2.616-4.092-3.01-4.175-3.01-1.766-.021l2.527 3.137-4.021-1.923c-2.59-1.238-3.772-1.303-3.322-.18.384.956 1.565 2.02 2.624 2.367 1.575.512 1.428.832-.802 1.756-1.5.621-3.848.693-5.216.161-2.833-1.102-11.865.243-13.197 1.966-.486.629 1.142.438 3.62-.424 7.754-2.699 6.712-.303-1.359 3.122-4.807 2.04-7.649 2.61-7.574 1.518.066-.96-1.165-.11-2.736 1.887-1.57 1.998-2.439 3.957-1.93 4.353.508.396 3.676.279 7.038-.26Zm39.426 33.344c.789-.27.503-.754-.673-1.138-2.29-.745-3.16-.302-1.677.853.534.416 1.591.544 2.35.285Zm15.015 5.852c.999-.742.81-.023-.418 1.597-1.229 1.62-2.045 2.227-1.815 1.349.23-.879 1.235-2.204 2.233-2.946ZM33.16 35.278c9.546-4.04 11.501-3.96 6.284.26-2.652 2.145-13.567 5.043-14.948 3.967-.256-.2 3.643-2.102 8.664-4.227Zm32.2 32.932c1.789.509 2.2.343 1.207-.487-.827-.692-2.531-1.376-3.786-1.52-2.779-.321-1.15.947 2.578 2.007Zm98.144 66.504c3.623-4.652 4.221-13.805 1.791-27.442-1.304-7.312-1.753-12.434-.999-11.381 2.836 3.957 17.401 17.924 18.577 17.814 2.15-.203-.928-10.687-4.478-15.258-1.884-2.425-3.778-4.376-4.208-4.334-.43.04.882 2.148 2.915 4.683 2.034 2.535 3.771 5.837 3.862 7.337.148 2.452-.041 2.457-1.868.037-1.63-2.159-1.898-2.232-1.354-.372.522 1.787-.737 1.01-5.479-3.384-6.253-5.793-8.382-9.632-5.825-10.505.952-.325.56-.634-1.207-.948-2.06-.367-3.17-2.069-5.201-7.972l-2.582-7.506 1.721 7.967c1.328 6.157 1.222 8.297-.47 9.415-1.456.962-1.632 1.522-.529 1.671 1.105.15.62 1.665-1.448 4.533-2.437 3.378-2.522 3.754-.396 1.736 1.492-1.415 3.453-2.655 4.36-2.753 2.381-.26 3.611 7.99 1.581 10.597-1.884 2.419-2.908 17.519-1.646 24.272l.828 4.431 2.055-2.638Zm-28.771-26.077c2.017.912 2.111.531.768-3.113-.842-2.285-2.246-4.67-3.12-5.303-.875-.632-.801.231.163 1.917 1.446 2.527 1.38 2.891-.369 2.07-1.167-.548-2.439-.591-2.825-.096-.727.934 1.409 2.731 5.383 4.525Zm26.775 9.612c.25-3.895.649-7.332.889-7.639.563-.723 2.532 1.33 3.416 3.565 1.132 2.862-.536 14.453-2.162 15.007-2.101.717-2.695-2.313-2.143-10.933Zm2.221 9.794c.362-.464.645-2.217.632-3.895-.025-2.944-.066-2.957-1.154-.391-1.122 2.651-.727 5.891.522 4.286Zm-13.033-13.27c1.952-1.054 4.683-3.756 6.071-6.006l2.524-4.091-3.415 4.027c-2.627 3.097-4.027 3.819-6.065 3.13-2.316-.784-2.651-.533-2.656 1.979-.005 2.701.21 2.759 3.541.961Zm-87.423-71.56c3.005-1.927 6.215-4.872 7.135-6.545 1.505-2.734 1.382-2.715-1.202.184-1.583 1.773-3.957 3.789-5.277 4.478-1.991 1.04-1.979.651.074-2.285 2.292-3.278 2.275-3.407-.244-1.752-3.829 2.517-8.027 7.803-6.896 8.684.521.405 3.406-.838 6.41-2.764Zm10.544 5.62c6.885-3.979 12.271-9.482 13.332-13.622.688-2.683.334-2.407-2.016 1.569-1.6 2.707-4.941 6.27-7.619 8.12l-4.768 3.297 2.675-4.162c1.472-2.29 2.57-4.898 2.439-5.798-.196-1.352-9.494 11.719-9.436 13.265.01.241 2.436-.96 5.392-2.67ZM129.1 96.455c-1.096-1.226-3.184-2.851-4.64-3.614-1.458-.762-.561.24 1.991 2.229 2.553 1.988 3.745 2.612 2.649 1.385Zm-2.342-6.16c4.3 1.492 4.434 1.439 3.159-1.255-1.642-3.47-2.581-4.276-2.739-2.349-.072.887-1.9.125-4.616-1.925-2.473-1.865-5.715-3.743-7.202-4.173-1.75-.504-.584.63 3.297 3.212 4.304 2.862 5.217 3.798 3.223 3.307-4.068-1.003-.519 1.315 4.878 3.184Zm38.323 27.567c.219-1.5.12-3.42-.22-4.267-.34-.849-.715.226-.833 2.387-.248 4.577.47 5.86 1.053 1.88Zm-123.4-94.476c-.636-1.633-.46-1.86 1.128-1.449 1.035.267.31-.37-1.608-1.418-3.3-1.8-3.318-1.897-.34-1.816 4.301.118 2.591-.978-2.367-1.519l-4.02-.437 1.98 2.598c3.06 4.012 6.142 6.395 5.227 4.041Zm111.631 83.66c1.04-1.336 1.233-2.066.426-1.62-.807.445-1.658 1.538-1.892 2.43-.235.891.425.527 1.466-.81Zm-1.58-4.353c1.041-1.337 1.233-2.066.427-1.62-.807.444-1.659 1.538-1.893 2.43-.235.89.425.526 1.466-.81Zm-54.23-46.864c4.68-.324 7.492-1.212 7.848-2.476.307-1.083 1.006-1.62 1.555-1.192.55.428 1.669.07 2.486-.796.818-.865.102.86-1.591 3.836l-3.078 5.41 4.47-5.405c6.362-7.694 9.24-6.442 9.265 4.025.006 2.76.641 4.991 1.408 4.957.769-.035.579.244-.422.618-1.36.51-2.174-1.302-3.232-7.201l-1.411-7.883.143 6.358c.187 8.219 1.541 15.26 2.912 15.132 3.885-.367 4.913-19.188 1.206-22.075-1.048-.816-1.781-2.618-1.631-4.003.201-1.85-.023-2.155-.845-1.149-.614.754-2.958 1.603-5.207 1.886-3.754.473-3.876.586-1.482 1.365 2.572.837 2.553.867-1.497 2.126a230.136 230.136 0 0 0-8.658 2.938c-2.505.913-4.746 1.183-4.98.6-.234-.584-1.79-.389-3.454.434-4.403 2.174-2.166 3.074 6.195 2.495ZM65.359 32.944c.832-1.17.767-1.591-.165-1.073-.845.47-1.46 1.338-1.37 1.927.091.59.781.205 1.535-.854Zm76.608 58.124c1.275-.662 4.295-3.88 6.712-7.151 3.33-4.508 4.272-5.286 3.893-3.214-.373 2.032.178 1.538 2.142-1.922 2.189-3.853 3.248-4.669 6.151-4.737 1.929-.045 3.428-.6 3.33-1.235-.099-.632.738-.492 1.858.312 1.12.806 1.633.798 1.14-.014-.493-.813-3.05-1.63-5.685-1.817-2.691-.191-5.311-1.167-5.979-2.229-1.013-1.609-1.166-1.502-1.031.727.218 3.623-10.128 19.25-11.405 17.224-1.032-1.64-1.747-.922-2.763 2.78-.671 2.448-.65 2.465 1.637 1.276Zm-41.611-37.907c2.196-.947 4.06-1.273 4.145-.724.158 1.02-6.681 3.578-7.617 2.849-.285-.222 1.277-1.179 3.472-2.125Zm-12.742-5.876c2.057-.835 8.52-11.322 7.477-12.135-1.087-.846-3.296 1.939-6.507 8.206-1.258 2.455-1.696 4.223-.97 3.93Zm14.218 2.381c2.922-1.102 5.104-2.166 4.849-2.364-.71-.554-10.383 2.927-10.265 3.694.057.371 2.495-.227 5.416-1.33Zm-7.362-4.95c1.62-.941 4.482-3.806 6.359-6.369l3.411-4.659-4.942 4.74c-2.718 2.606-5.873 5.244-7.01 5.86-1.137.618-1.776 1.35-1.417 1.63.358.279 1.977-.262 3.599-1.202ZM59.745 20.112c-1.97-2.15-2.78-3.383-1.797-2.739 1.688 1.105 7.383.844 5.949-.273-.371-.29-2.822-1.157-5.445-1.931-6.246-1.84-6.28.663-.07 5.222l4.945 3.63-3.582-3.909Zm89.722 67.481c1.03-.592 2.241-1.612 2.693-2.264.45-.652-.442-.485-1.983.372-1.541.858-2.752 1.876-2.692 2.265.06.389.952.222 1.982-.373Zm-9.441-11.304c3.061-2.579 7.464-11.028 8.135-15.617.439-3.006 1.033-2.79 3.078 1.12 1.404 2.685 1.425 2.675.629-.29-.454-1.69-1.276-3.506-1.827-4.036-.552-.532.649-.216 2.669.701l3.671 1.668-2.942-2.604-2.943-2.603 5.558 1.373c3.057.756 4.956.887 4.221.291-.735-.594-2.665-1.343-4.289-1.663-2.252-.444-2.554-.717-1.277-1.154 2.57-.876 10.307 1.77 14.02 4.797l3.327 2.711-5.173-1.867c-4.545-1.642-4.716-1.616-1.412.217 5.183 2.875 3.933 3.603-3.034 1.768-3.213-.846-5.211-1.031-4.439-.41.773.62 5.062 1.745 9.531 2.499 6.865 1.16 7.906 1.017 6.709-.91-3.973-6.405-14.07-10.937-22.927-10.293-4.103.299-5.388 1.106-8.541 5.367-3.066 4.144-3.196 4.603-.748 2.639 2.908-2.335 2.92-2.278.659 3.157-2.978 7.152-3.674 7.876-3.27 3.398.396-4.403-.124-3.166-2.119 5.033-.828 3.403-1.217 6.414-.864 6.692.354.278 1.972-.615 3.598-1.984Zm-57.3-46.865c1.654-2.147 2.035-3.072.847-2.055-1.189 1.017-2.542 2.774-3.008 3.904-.466 1.13.507.298 2.161-1.85Zm36.773 27.47c.078-3.54.327-4.176.858-2.192.754 2.822.405 8.252-.487 7.557-.265-.206-.431-2.62-.371-5.364Zm56.182 44.637c-.801-1.018-2.426-2.284-3.609-2.812-1.182-.528-.526.304 1.459 1.85s2.952 1.978 2.15.962Zm-35.989-30.696c.886-.51 2.57-3.238 3.744-6.063 4.071-9.795 4.205-10.011 3.743-6.031-.691 5.933-4.658 13.826-6.815 13.562-2.467-.302-2.515-.406-.672-1.468ZM108.867 40.72c1.622-.306 2.9-1.773 4.306-4.942 1.964-4.424 1.954-4.452-.501-1.51-1.375 1.649-3.17 2.747-3.99 2.442-1.033-.386-1.585.208-1.805 1.945-.271 2.144.015 2.44 1.99 2.065ZM84.288 17.825c-1.102-1.232-2.965-2.67-4.14-3.194-1.175-.525-.273.483 2.004 2.24 2.277 1.756 3.238 2.185 2.136.954Zm81.169 61.202c2.624 1.013 2.833.932 1.186-.458-1.1-.929-3.025-1.807-4.28-1.951-2.663-.307-1.409.67 3.094 2.41ZM90.202 19.298c1.335.626 3.148 1.09 4.027 1.03.88-.06-.58-1.056-3.246-2.213-7.184-3.12-7.839-2.13-.781 1.183Zm83.729 63.74c1.059.395 2.789 1.046 3.846 1.444 3.173 1.199-.592-5.603-4.818-8.705l-3.69-2.707 3.583 3.909 3.582 3.909-4.353-2.92-4.354-2.92 3.266 3.253c2.752 2.74 2.844 3.124.586 2.439-2.932-.89-.919 1.078 2.352 2.298Zm-57.246-48.246c1.457-1.87 1.84-2.8.853-2.068-.988.733-2.181 2.265-2.649 3.402-.47 1.137.339.537 1.796-1.334ZM85.492 12.918c.32-1.135 1.521-1.466 3.097-.853 1.416.552 2.522.66 2.457.245-.064-.417-2.672-1.444-5.796-2.283-5.956-1.6-7.041-.519-2.798 2.786 1.774 1.382 2.671 1.413 3.04.105Zm51.267 35.948c.369-2.289.903-3.98 1.187-3.76.284.221.213 2.275-.156 4.563-.369 2.29-.904 3.981-1.187 3.76-.284-.22-.214-2.274.156-4.563Zm-3.212-4.52c.358-1.261.202-2.25-.349-2.197-.55.05-.844 1.081-.653 2.29.277 1.747.482 1.727 1.002-.094Zm-38.117-30.3c-.525-.86-1.442-1.518-2.036-1.462-.593.056-.164.76.956 1.564 1.238.89 1.661.85 1.08-.102ZM76.683-9.092c6.978-1.81 7.098-1.895 7.17-5.111.041-1.776-.2-1.65-1.05.547-.686 1.768-1.318 2.319-1.665 1.454-.309-.767-1.525-.678-2.705.197-1.18.876-2.388.99-2.684.251-.295-.738-1.76-.191-3.254 1.212-1.494 1.405-2.566 2.67-2.385 2.811.182.142 3.14-.472 6.573-1.361ZM57.94-20.115c2.473.334 6.231.295 8.352-.088 2.936-.53 2.435-.696-2.105-.692-3.278.003-7.25-.162-8.827-.367-1.575-.205-2.651-.167-2.39.083.26.251 2.496.73 4.97 1.064Zm8.907-5.291c5.946-.741 11.026-.804 11.293-.14.267.666.91.664 1.428-.001.517-.665 2.859-1.518 5.203-1.895l4.262-.685-4.348.127c-2.391.07-4.898-.301-5.57-.825-.673-.524-1.553-.529-1.957-.01-.402.516-1.199.2-1.769-.705-.57-.905-1.7-1.42-2.51-1.143-.895.306-.67.765.578 1.171 3.72 1.21.933 2.259-8.531 3.212-5.134.516-9.232 1.232-9.109 1.59.122.358 5.087.045 11.03-.696Zm27.648 17.54c4.837-2.791 4.852-2.816 1.239-2.15-2.533.469-3.53.172-3.246-.965.227-.903-.626-.167-1.893 1.639-3.108 4.424-1.959 4.86 3.9 1.476ZM73.737-22.217c1.502-.622 2.679-1.465 2.615-1.874-.063-.409-1.497-.06-3.187.775-3.71 1.832-3.265 2.688.572 1.099Zm-7.833-7.92 3.668-.656-3.763.044c-3.535.042-4.754.35-3.929.992.196.153 2.007-.019 4.024-.38ZM214.956 78.151c1.863-5.023 2.387-14.46 1.009-18.167-.75-2.02-2.976-5.184-4.947-7.031-1.97-1.848-4.574-5.436-5.786-7.975l-2.203-4.616 7.652 5.066 7.653 5.064-7.511-6.31c-5.607-4.712-6.59-5.877-3.874-4.599l3.636 1.713-2.767-2.828-2.768-2.828 4.928 1.763c2.927 1.047 5.83 2.934 7.15 4.646l2.222 2.885-3.151-1.272c-3.101-1.252-3.104-1.231-.223 1.349 1.611 1.442 3.317 2.84 3.792 3.108.476.269.523.925.106 1.46-.416.534-.033 1.536.851 2.224 2.469 1.924 2.131-1.162-.77-7.004-2.979-5.999-7.111-8.743-14.799-9.826-3.606-.508-5.387.01-6.93 2.015-1.379 1.792-1.462 2.498-.246 2.1 1.499-.49 1.846-.221 1.921 1.497.111 2.567-1.718 13.443-2.41 14.332-1.077 1.383-1.725-4.662-1.008-9.392.416-2.743.411-4.553-.009-4.022-1.602 2.016-1.418 18.416.219 19.69 1.45 1.13 6.094-7.209 6.449-11.579.634-7.767 2.244-4.419 3.165 6.58.462 5.516 1.481 11.291 2.264 12.834.784 1.544.632-.769-.338-5.138-.969-4.37-1.353-7.982-.854-8.029 1.399-.132 5.074 16.162 3.747 16.615-1.184.403.347 6.476 1.948 7.723.479.373 1.326-.549 1.882-2.047ZM89.688-19.808c1.228-1.62 1.417-2.339.418-1.597-.998.742-2.003 2.067-2.233 2.945-.23.879.587.271 1.815-1.349Zm122.366 93.123c.69-.235.36-4.708-.733-9.94-1.3-6.225-1.366-9.028-.193-8.114 2.981 2.321 4.257 6.264 4.214 13.01-.031 4.834-.514 6.354-1.962 6.175-2.513-.31-2.861-.607-1.326-1.13ZM100.666-14.512c.832-1.17.767-1.592-.165-1.073-.845.47-1.461 1.337-1.37 1.927.09.589.781.205 1.535-.854Zm7.465 5.646c3.731-3.863 5.166-5.828 4.586-6.28-1.05-.817-6.288 4.494-5.751 5.832.258.643.783.845 1.165.448ZM90.079-24.319c.833-1.171.768-1.592-.165-1.073-.844.47-1.46 1.337-1.37 1.926.091.59.782.206 1.535-.853Zm16.526 8.316c1.228-1.62 1.417-2.338.418-1.596-.998.742-2.003 2.067-2.233 2.945-.23.879.586.271 1.815-1.349Zm-5.156-4.016c1.228-1.62 1.417-2.338.418-1.596-.998.741-2.003 2.067-2.233 2.945-.23.878.586.271 1.815-1.349Zm98.704 68.682c.663-3.994 1.409-7.1 1.66-6.906 1.007.785.162 9.007-1.264 12.287-1.872 4.309-1.912 3.759-.396-5.38ZM134.755 2.752c1.996-.62 3.692-.709 3.771-.196.132.854-6.142 2.302-7.017 1.62-.208-.163 1.252-.804 3.246-1.424Zm-38.7-27.34c.588-.054 1.966-1.252 3.063-2.66 1.097-1.407 3.062-2.735 4.369-2.95 1.306-.215.417-.339-1.978-.277-2.394.062-4.431-.388-4.526-1.002-.18-1.16-5.315-1.096-6.228.076-.287.369.586 1.164 1.939 1.768 1.353.604 1.958 1.27 1.342 1.48-1.345.459.496 3.709 2.02 3.565Zm-12.636-9.76c-.525-.86-1.442-1.518-2.035-1.462-.594.056-.164.76.955 1.564 1.238.89 1.662.85 1.08-.101Zm-4.936-4.472c-2.535-4.148-.239-3.684 5.92 1.199l5.387 4.269-4.075-4.326c-2.682-2.849-5.464-4.73-8.138-5.505l-4.064-1.18 2.087 3.309c1.148 1.82 2.659 3.708 3.357 4.199.699.49.485-.395-.474-1.965ZM188.977 42.3c.896-1.233 1.913-3.428 2.258-4.877l.628-2.634-1.659 1.83-1.659 1.831.628-2.634c.88-3.691 1.606-4.57 2.318-2.8.335.836.926-.44 1.312-2.835s1.312-4.564 2.055-4.817c.745-.254.862-.845.262-1.312-.6-.468-.836-1.177-.522-1.578.314-.4 4.846 1.302 10.071 3.78 11.368 5.395 14.104 5.996 12.935 2.84-.441-1.188-1.748-2.86-2.906-3.713-2.056-1.52-2.072-1.502-.674.75 1.325 2.134 1.208 2.205-1.587.974-1.66-.73-4.188-2.219-5.618-3.308-2.099-1.598-2.452-1.556-1.827.218.555 1.576-.217 1.128-2.732-1.587-2.516-2.717-3.543-3.314-3.641-2.113-.075.92-.6 1.31-1.167.868-2.739-2.133-.232-3.503 4.612-2.521 2.977.604 4.939.699 4.36.209-.58-.49-4.34-1.296-8.356-1.793-5.45-.673-7.223-.392-6.991 1.114.171 1.11-.695 3.377-1.925 5.037-1.921 2.596-1.896 2.846.176 1.777 2.347-1.21 2.386-1.17 1.411 1.472-.551 1.493-.516 2.78.077 2.862.594.08.078 1.431-1.146 3.003-1.906 2.446-2.321 2.505-2.883.419-.362-1.342-.725.48-.807 4.048-.168 7.315.62 8.76 2.997 5.49ZM134.15-.987c2.067-.643 3.017-1.27 2.111-1.391-1.73-.234-7.049 1.641-6.303 2.223.238.185 2.124-.189 4.192-.832ZM152.129.417c.754-.97 2.533 4.97 3.219 10.757.761 6.419.752 6.406-1.37-1.965-1.174-4.633-2.008-8.59-1.849-8.792Zm-2.247 7.138c.037-2.547-.164-4.812-.447-5.033-.284-.22-.547 1.683-.584 4.23-.038 2.548.163 4.812.447 5.033.283.221.547-1.682.584-4.23Zm-37.465-32.243c2.878-4.59 3.998-5.46 7.611-5.915 5.946-.75 6.735.451 2.717 4.138-2.977 2.73-3.046 2.948-.5 1.584 1.624-.869 3.323-2.48 3.776-3.578.551-1.334 1.164-1.456 1.85-.365.565.897.535 2.4-.069 3.342-.604.941.535.195 2.532-1.656 2.794-2.592 4.845-3.248 8.909-2.853 4.056.395 5.25.952 5.15 2.397-.093 1.33.343 1.333 1.481.015.885-1.028 1.42-1.14 1.185-.249-.658 2.502 1.292 3.315 2.925 1.218 1.115-1.433 3.057-1.21 8.222.939 3.719 1.547 7.015 3.01 7.323 3.25.308.24-1.057 2.866-3.035 5.835l-3.596 5.397 4.06-4.819c3.936-4.673 4.139-4.742 6.637-2.277 2.514 2.48 2.528 2.474.582-.215-1.677-2.32-1.494-3.601 1.149-8.056l3.144-5.297-3.578 4.26-3.578 4.26-7.995-3.363c-4.472-1.88-8.839-4.476-9.911-5.888-1.482-1.956-1.745-2.025-1.163-.302.612 1.812.268 1.857-1.85.247-2.123-1.615-2.465-1.568-1.857.257.479 1.442.216 2.08-.739 1.796-.816-.242-3.806-.565-6.646-.719-2.84-.154-5.6-.974-6.134-1.82-.543-.862-1.961-.886-3.218-.055-1.506.996-3.176.798-5.066-.6-2.242-1.66-2.547-1.646-1.49.066 1.269 2.055 1.177 2.161-2.023 2.304-1.843.082-4.352-.522-5.575-1.343-1.222-.82-2.266-.967-2.318-.327-.051.64-1.282.238-2.733-.892s-3.017-1.57-3.478-.978c-.532.683.357 1.626 2.427 2.574 3.011 1.379 3.045 1.544.443 2.126-2.321.52-2.112.63 1.167.618 3.606-.013 3.795.104 1.949 1.208-1.221.731-1.447 1.303-.562 1.423.816.11.874.997.129 1.97-.744.975-1.416 2.661-1.492 3.749-.08 1.15 1.273-.272 3.238-3.406Zm8.194 10.095c.832-1.17.767-1.591-.165-1.073-.845.47-1.461 1.337-1.37 1.927.091.589.781.205 1.535-.854Zm-13.406-10.442c.832-1.17.767-1.591-.165-1.073-.845.47-1.461 1.338-1.37 1.927.091.59.781.205 1.535-.854Zm-20-14.172c-.525-.86-1.442-1.518-2.036-1.462-.594.055-.164.759.955 1.564 1.238.889 1.662.849 1.08-.102Zm41.12 28.854c1.349-.482 2.991-2.213 3.648-3.849l1.196-2.972-2.777 2.008c-1.528 1.104-3.17 2.835-3.65 3.847-.767 1.621-.58 1.736 1.583.966Zm51.596 32.517c4.795-6.16 5.577-16.981.983-13.597-1.047.771-.888.874.681.437 3.285-.911 1.806 4.71-2.3 8.743-2.422 2.38-3.303 4.15-2.889 5.803.508 2.03 1.027 1.826 3.525-1.386ZM125.427-18.65c.832-1.171.767-1.592-.165-1.073-.844.47-1.461 1.337-1.37 1.926.091.59.781.206 1.535-.853Zm-24.84-17.929c-5.557-5.484-6.662-7.265-5.072-8.18 1.15-.663.767-1.326-1.438-2.484-1.654-.868-3.293-1.213-3.642-.766-.911 1.17 4.882 8.4 9.243 11.533 3.51 2.52 3.561 2.514.909-.103Zm1.783-1.758c-.801-1.017-2.427-2.283-3.61-2.81-1.181-.53-.526.303 1.459 1.849s2.953 1.978 2.151.961Zm69.938 45.79c.973-2.034 1.921-6.199 2.108-9.256.429-7.044.778-7.422 3.6-3.909C181.37-1.536 181.62.81 179.091 4.34l-2.245 3.136 3.058-2.303c1.682-1.267 2.745-1.786 2.361-1.155-.384.632.729 2.26 2.475 3.62 2.377 1.852 2.933 1.938 2.215.347-1.475-3.27-.008-4 4.039-2.007 2.023.996 3.614 1.395 3.535.887-.079-.508-1.908-1.557-4.066-2.33-2.157-.774-3.881-1.911-3.832-2.528.051-.618 2.854.127 6.229 1.653 3.376 1.527 6.078 2.382 6.003 1.902-.074-.48-2.229-1.662-4.79-2.627-6.064-2.284-6.331-4.207-.35-2.53 2.542.713 3.895.702 3.004-.026-.892-.727-4.467-1.502-7.944-1.72-5.885-.37-6.563-.704-9.763-4.803-3.916-5.02-3.734-6.349.6-4.364 3.995 1.83 13.298 3.227 14.155 2.126.375-.481-1.082-2.2-3.238-3.82-2.93-2.2-3.558-2.361-2.487-.637 1.251 2.015.884 2.11-2.904.752-5.648-2.025-6.226-2.61-2.414-2.45 1.712.074 2.72-.174 2.24-.547-1.696-1.322-11.648-1.076-12.73.314-1.164 1.494-.418 9.19.938 9.696.442.165-.035 1.375-1.058 2.69-2.427 3.115-2.726 2.726-2.362-3.077.167-2.662-.042-3.806-.465-2.544-.991 2.955-.658 17.522.421 18.449.453.39 1.619-.955 2.592-2.99Zm-63.522-45.519c-1.386-1.437-3.939-3.426-5.671-4.417-1.733-.992-.599.183 2.52 2.613 3.12 2.43 4.537 3.241 3.151 1.804Zm71.687 53.143c.6-.77.861-1.973.58-2.673-.28-.7-.95-.209-1.486 1.092-1.138 2.76-.661 3.593.906 1.58Zm-3.03-3.69c.359-1.261.202-2.25-.349-2.198-.55.051-.844 1.082-.653 2.292.277 1.746.482 1.726 1.002-.095Zm-7.913-8.965c.072-.878.957-1.6 1.967-1.604 1.01-.005 1.385.108.833.25-.55.144-.941 1.25-.869 2.46.091 1.5-.215 1.928-.964 1.344-.603-.47-1.038-1.572-.967-2.45ZM115.583-39.57c-1.096-1.797-1.094-3.163.008-3.798 1.324-.761.894-1.637-1.854-3.777-1.968-1.533-3.741-2.577-3.941-2.32-.575.739 4.599 10.651 6.123 11.73.759.536.607-.29-.336-1.835Zm28.992 19.568c1.041-1.337 1.233-2.066.427-1.62-.807.445-1.659 1.538-1.893 2.43-.234.89.425.526 1.466-.81Zm-19.428-14.605c-.499-.823-1.659-1.726-2.578-2.008-.92-.283-.511.39.907 1.494 1.418 1.104 2.169 1.335 1.671.514Zm-5.156-4.016c-.499-.823-1.66-1.727-2.579-2.008-.919-.283-.51.39.908 1.494 1.418 1.104 2.169 1.335 1.671.514Zm70.216 52.408c-.183-1.21-.782-2.157-1.332-2.104-.551.052-.402 1.04.33 2.198 1.06 1.672 1.264 1.653 1.002-.094ZM141.73-24.69c.833-1.171.768-1.592-.165-1.073-.844.47-1.461 1.337-1.37 1.926.091.59.781.206 1.535-.853Zm-15.31-13.68c-1.097-1.225-3.184-2.851-4.641-3.614-1.457-.762-.56.24 1.992 2.229 2.552 1.988 3.745 2.612 2.649 1.385Zm8.253-2.62-1.496-3.396 2.408 1.82c1.333 1.008 2.461 1.165 2.528.352.14-1.724-5.669-6.549-6.54-5.431-.666.855 2.302 8.408 3.697 9.408.494.354.226-.884-.597-2.752Zm67.978 50.993c6.853 1.545 7.322-.101 1.427-5.024-4.447-3.714-4.702-3.8-2.232-.748 3.965 4.9 3.707 5.621-1.487 4.174-2.52-.701-4.146-.88-3.612-.395.533.485 3.19 1.382 5.904 1.993Zm-60.653-47.102c-.499-.822-1.659-1.726-2.578-2.008-.919-.283-.51.39.908 1.494 1.417 1.105 2.169 1.336 1.67.514Zm3.081-.765c-.801-1.017-2.426-2.283-3.609-2.811-1.182-.529-.526.303 1.459 1.85 1.985 1.546 2.952 1.978 2.15.961Zm31.594 22.778c.601-.055 2.565.937 4.365 2.207 1.894 1.336 2.493 2.204 1.421 2.059-2.193-.297-7.374-4.116-5.786-4.266Zm3.663-20.96c8.343-10.24 12.091-13.169 14.653-11.45 1.667 1.119 1.744 1.477.277 1.28-1.502-.204-1.362 1.308.533 5.737 3.601 8.412 11.745 22.934 13.16 23.46 1.942.726.249-18.455-2.057-23.307-1.177-2.476-4.131-6.08-6.567-8.014l-4.428-3.515 7.681-8.462c4.224-4.653 8.502-9.052 9.506-9.773 1.003-.721 1.379-1.658.836-2.082-.544-.423-5.083 3.797-10.087 9.38l-9.098 10.146-5.248-1.137c-8.216-1.782-30.095 1.588-29.636 4.563.095.616 4.455 2.066 9.687 3.223 6.96 1.539 10.596 1.594 13.542.202 2.215-1.047 4.29-1.715 4.609-1.485.321.229-1.761 3.04-4.626 6.248-2.865 3.206-5.635 6.845-6.157 8.088-.52 1.242 1.018-.155 3.42-3.102Zm-4.559-12.038c4.675-.185 8.041-.694 7.479-1.132-.561-.437-5.045-.683-9.963-.546-4.918.137-8.996-.1-9.061-.528-.066-.426 4.188-1.433 9.452-2.238 12.513-1.91 23.819.166 14.676 2.696-1.983.549-4.108 1.624-4.722 2.388-1.048 1.308-14.275 1.543-15.703.279-.363-.32 3.166-.734 7.842-.92Zm27.925 18.62c-1.632-.22-8.019-12.12-7.819-14.571.217-2.663 1.843-.264 4.555 6.72 1.458 3.757 3.023 6.795 3.479 6.752.774-.073-1.853-6.708-6.252-15.785l-1.906-3.935 3.966 3.026c4.946 3.775 6.439 6.755 8.064 16.096 1.42 8.164.778 10.928-1.263 5.438-.723-1.946-1.994-3.628-2.824-3.741Z" clip-rule="evenodd"/>
</svg>
